<mxfile host="app.diagrams.net" modified="2023-07-19T07:44:26.138Z" agent="Mozilla/5.0 (Macintosh; Intel Mac OS X 10_15_7) AppleWebKit/605.1.15 (KHTML, like Gecko) Version/16.3 Safari/605.1.15" version="21.6.2" etag="KbW_vbJnfUC9Hsa7nb5P" type="github">
  <diagram name="第 1 页" id="onu4NLHjxf45CPE9OEgV">
    <mxGraphModel>
      <root>
        <mxCell id="0" />
        <mxCell id="1" parent="0" />
      </root>
    </mxGraphModel>
  </diagram>
</mxfile>
